<svg xmlns="http://www.w3.org/2000/svg" viewBox="0 0 64 64"><defs><linearGradient id="g" x1="0" y1="0" x2="1" y2="1"><stop stop-color="#00BFA6"/><stop offset="1" stop-color="#7B4DFF"/></linearGradient></defs><circle cx="32" cy="32" r="29" fill="white" stroke="#E5EAF0" stroke-width="2"/><path d="M21 16.5c1.2-.6 2.6-.1 3.2 1.1l4.2 8.1c.5 1 .3 2.2-.5 3l-3.4 3.2c3.4 6.5 7.8 10.9 14.3 14.3l3.2-3.4c.8-.8 2-.9 3-.4l8 4.2c1.2.6 1.7 2 1.1 3.2l-1.8 3.8c-.7 1.5-2.2 2.4-3.9 2.3-17.2-1-31-14.8-32-32-.1-1.7.8-3.2 2.3-3.9z" fill="none" stroke="url(#g)" stroke-width="3.5" stroke-linecap="round" stroke-linejoin="round"/></svg>