<svg xmlns="http://www.w3.org/2000/svg" viewBox="0 0 64 64"><defs><linearGradient id="g" x1="0" y1="0" x2="1" y2="1"><stop stop-color="#00BFA6"/><stop offset="1" stop-color="#7B4DFF"/></linearGradient></defs><circle cx="32" cy="32" r="29" fill="white" stroke="#E5EAF0" stroke-width="2"/><path d="M47.5 43.5A20 20 0 1 0 18.3 47l-2.8 9 9.2-2.5a20 20 0 0 0 22.8-10z" fill="none" stroke="url(#g)" stroke-width="3.2" stroke-linecap="round" stroke-linejoin="round"/><path d="M24 22.5c.8-.4 1.8-.1 2.2.7l2.8 5.4c.4.7.2 1.5-.3 2l-2.2 2.1c2.3 4.3 5.1 7.2 9.5 9.5l2.1-2.2c.5-.5 1.4-.7 2-.3l5.3 2.8c.8.4 1.1 1.4.7 2.2l-1.2 2.5c-.5 1-1.5 1.6-2.6 1.5-11.4-.7-20.5-9.8-21.2-21.2-.1-1.1.5-2.1 1.5-2.6z" fill="none" stroke="#0D1B2A" stroke-width="2.2" stroke-linecap="round" stroke-linejoin="round"/></svg>